<?xml version="1.0" encoding="utf-8"?>
<!-- Generator: Adobe Illustrator 26.2.1, SVG Export Plug-In . SVG Version: 6.00 Build 0)  -->
<svg version="1.1" id="Layer_1" xmlns="http://www.w3.org/2000/svg" xmlns:xlink="http://www.w3.org/1999/xlink" x="0px" y="0px"
	 viewBox="0 0 700 700" style="enable-background:new 0 0 700 700;" xml:space="preserve">
<style type="text/css">
	.st0{fill:#87BFFA;}
</style>
<g>
	<path class="st0" d="M158.8,14c-49,0-89.8,38.5-89.8,89.6c0,12.5,2.8,28.7,7,40.1c24,51.6,48.3,103.4,72.4,155.1
		c1.8,3.8,5.9,6.5,10.1,6.5h156.8c28.1,0,50.4,22.3,50.4,50.4c0,28.1-22.3,50.4-50.4,50.4h-84c-46.3,0-84,37.7-84,84s37.7,84,84,84
		h296.8c4.2,0,8.4-2.6,10.1-6.5c27.3-58.2,55.8-115.9,82.8-174.1c4.6-12.2,7.9-29.6,7.9-43.4c0-56.9-45.7-100.8-101-100.8
		c-55.3,0-100.6,44-100.6,100.8c0,13.8,3.3,31.2,7.9,43.4c25,52.7,50.2,105.5,75.2,158.2H231.5c-34.3,0-61.6-27.3-61.6-61.6
		c0-34.3,27.3-61.6,61.6-61.6h84c40.1,0,72.8-32.7,72.8-72.8s-32.7-72.8-72.8-72.8H176.4c21.6-46.4,43.7-92.6,64.9-139.1
		c4.2-11.4,7-27.6,7-40.1C248.3,52.5,207.9,14,158.8,14L158.8,14z M158.8,36.4c37.6,0,67,27.6,67,67.2c0,8.3-3.1,25.2-5.6,32.2
		c-20.4,43.9-41,87.8-61.6,131.6c-20.1-44.1-40.8-86.7-61.6-131.6c-2.6-7-5.6-23.9-5.6-32.2C91.5,64.1,121.2,36.4,158.8,36.4
		L158.8,36.4z M158.7,64.4c-21.5,0-39.2,17.7-39.2,39.2s17.7,39.2,39.2,39.2c21.5,0,39.2-17.7,39.2-39.2S180.2,64.4,158.7,64.4z
		 M158.7,86.8c9.4,0,16.8,7.4,16.8,16.8s-7.4,16.8-16.8,16.8c-9.4,0-16.8-7.4-16.8-16.8S149.3,86.8,158.7,86.8z M528.1,271.6
		c43.7,0,78.6,33.3,78.6,78.4c0,9.6-3.3,26.9-6.5,35.4c-23.8,50.4-47.9,100.8-71.9,151.2c-23.5-50.6-48.6-101.6-71.9-151.2
		c-3.1-8.4-6.5-25.8-6.5-35.3C449.9,304.9,484.4,271.6,528.1,271.6L528.1,271.6z M528.3,299.6c-27.7,0-50.4,22.7-50.4,50.4
		c0,27.7,22.7,50.4,50.4,50.4c27.7,0,50.4-22.7,50.4-50.4C578.7,322.3,556,299.6,528.3,299.6z M528.3,322c15.6,0,28,12.4,28,28
		s-12.4,28-28,28s-28-12.4-28-28S512.7,322,528.3,322z"/>
</g>
</svg>
