<?xml version="1.0" encoding="utf-8"?>
<!-- Generator: Adobe Illustrator 26.3.1, SVG Export Plug-In . SVG Version: 6.00 Build 0)  -->
<svg version="1.1" id="Layer_1" xmlns="http://www.w3.org/2000/svg" xmlns:xlink="http://www.w3.org/1999/xlink" x="0px" y="0px"
	 viewBox="0 0 376 565" style="enable-background:new 0 0 376 565;" xml:space="preserve">
<style type="text/css">
	.st0{fill:#8E9AAF;}
</style>
<g>
	<path class="st0" d="M56.8,265.7c32.4,63.5,109.8,213.6,109.8,213.6c11.8,22.8,31.1,22.8,42.9,0c0,0,77.5-150.1,109.9-213.6
		c13.2-25.8,25.8-51.7,28.9-81.3C355.3,118.2,312.5,8.8,188,8.8S20.7,118.2,27.8,184.4C30.9,214,43.6,239.9,56.8,265.7L56.8,265.7z
		 M187.6,62h0.4h0.4c59.1-0.1,107.4,48.5,107.4,108.2c0,59-47.8,106.8-107,107.1c-0.2,0-0.5,0-0.8,0c-0.2,0-0.5,0-0.7,0
		c-59.2-0.3-107-48.1-107-107.1C80.3,110.5,128.6,61.9,187.6,62L187.6,62z"/>
	<path class="st0" d="M279.8,419.3c-5.1,10-10,19.5-14.5,28.2c44.9,8.7,71.1,23.6,71.1,33.1c0,14.2-56.3,40.2-148.4,40.2
		c-92,0-148.4-26.1-148.4-40.2c0-9.6,26.1-24.4,71.1-33.1c-4.5-8.7-9.4-18.2-14.5-28.2c-49.9,11-87,31.6-87,61.3
		c0,46.4,89.9,70.6,178.7,70.6c88.8,0,178.7-24.2,178.7-70.6C366.7,450.9,329.7,430.3,279.8,419.3L279.8,419.3z"/>
</g>
</svg>
