<?xml version="1.0" encoding="utf-8"?>
<!-- Generator: Adobe Illustrator 26.3.1, SVG Export Plug-In . SVG Version: 6.00 Build 0)  -->
<svg version="1.1" id="Layer_1" xmlns="http://www.w3.org/2000/svg" xmlns:xlink="http://www.w3.org/1999/xlink" x="0px" y="0px"
	 viewBox="0 0 355 543" style="enable-background:new 0 0 355 543;" xml:space="preserve">
<style type="text/css">
	.st0{fill:#8E9AAF;}
</style>
<g>
	<path class="st0" d="M273.7,489.2H72.3c-12.9,0-23.4,10.4-23.4,23.3c0,12.9,10.5,23.4,23.4,23.4h201.4c12.9,0,23.4-10.5,23.4-23.4
		C297.1,499.6,286.6,489.2,273.7,489.2L273.7,489.2z"/>
	<path class="st0" d="M173,464.5c16.4,0,164-185.9,164-276.4c0-90.6-73.4-164-164-164c-90.6,0-164,73.4-164,164
		C9,278.7,156.6,464.5,173,464.5L173,464.5z M78.1,186.3c0-52.4,42.5-94.9,94.9-94.9c52.4,0,94.9,42.5,94.9,94.9
		c0,52.4-42.5,94.9-94.9,94.9C120.5,281.2,78.1,238.7,78.1,186.3z"/>
</g>
</svg>
